<svg xmlns="http://www.w3.org/2000/svg" width="135" height="40" fill="none"><g clip-path="url(#a)"><path fill="#A6A6A6" d="M124.249 0H10.757c-.414 0-.823 0-1.235.002-.346.002-.688.008-1.037.013-.758.007-1.513.067-2.26.176A8.208 8.208 0 0 0 4.08.818a7.294 7.294 0 0 0-1.826 1.179 6.352 6.352 0 0 0-1.33 1.621A6.093 6.093 0 0 0 .22 5.521a11.559 11.559 0 0 0-.202 2.002c-.01.307-.011.615-.017.921v23.114c.006.311.007.612.017.922.01.671.077 1.34.202 2.002a6.08 6.08 0 0 0 .705 1.905 6.306 6.306 0 0 0 1.33 1.614c.533.477 1.15.875 1.826 1.179a8.251 8.251 0 0 0 2.144.63c.748.11 1.503.168 2.26.177a169.197 169.197 0 0 0 2.273.013H124.25c.406 0 .818 0 1.223-.002.344 0 .697-.004 1.04-.01a16.872 16.872 0 0 0 2.257-.178 8.371 8.371 0 0 0 2.152-.63 7.102 7.102 0 0 0 1.825-1.18 6.501 6.501 0 0 0 1.333-1.613c.341-.6.576-1.242.698-1.905.126-.661.196-1.33.21-2.002.004-.31.004-.611.004-.921.009-.364.009-.725.009-1.094V9.536c0-.366 0-.73-.009-1.092 0-.306 0-.614-.004-.92a12.043 12.043 0 0 0-.21-2.003 6.096 6.096 0 0 0-.698-1.903c-.696-1.203-1.801-2.182-3.158-2.8a8.324 8.324 0 0 0-2.152-.627c-.746-.11-1.5-.17-2.257-.177-.343-.004-.696-.01-1.04-.012C125.067 0 124.655 0 124.249 0Z"/><path fill="#000" d="M9.43 39.128c-.344 0-.68-.004-1.022-.01a16.153 16.153 0 0 1-2.112-.164 7.267 7.267 0 0 1-1.873-.548 6.135 6.135 0 0 1-1.578-1.017 5.408 5.408 0 0 1-1.154-1.397 5.276 5.276 0 0 1-.613-1.657 11.03 11.03 0 0 1-.188-1.876 80.722 80.722 0 0 1-.017-.913V8.441s.01-.692.017-.895a10.99 10.99 0 0 1 .187-1.872c.108-.579.315-1.14.614-1.663.295-.518.682-.99 1.147-1.398.465-.412 1-.757 1.585-1.023a7.193 7.193 0 0 1 1.868-.544 16.15 16.15 0 0 1 2.12-.164L9.43.87h116.14l1.032.013c.704.007 1.406.061 2.1.162a7.329 7.329 0 0 1 1.888.548c1.173.535 2.128 1.381 2.73 2.42.294.52.498 1.076.604 1.65.118.624.183 1.255.197 1.887.003.284.003.588.003.89.009.376.009.733.009 1.093v20.933c0 .363 0 .718-.009 1.075 0 .326 0 .623-.004.93a11.45 11.45 0 0 1-.193 1.854 5.302 5.302 0 0 1-.611 1.67c-.298.513-.685.98-1.147 1.386a6.13 6.13 0 0 1-1.582 1.023 7.24 7.24 0 0 1-1.885.55 15.96 15.96 0 0 1-2.112.163c-.331.007-.678.01-1.014.01l-1.226.003-114.92-.002Z"/><path fill="#fff" d="M32.797 20.3a4.95 4.95 0 0 1 2.357-4.152 5.066 5.066 0 0 0-3.991-2.157c-1.68-.176-3.308 1.005-4.163 1.005-.872 0-2.19-.988-3.609-.959a5.315 5.315 0 0 0-4.473 2.728c-1.934 3.349-.491 8.27 1.362 10.976.926 1.326 2.01 2.806 3.427 2.754 1.387-.058 1.905-.885 3.58-.885 1.658 0 2.144.885 3.59.851 1.489-.024 2.427-1.33 3.321-2.669a10.962 10.962 0 0 0 1.519-3.092 4.781 4.781 0 0 1-2.92-4.4Zm-2.731-8.09a4.873 4.873 0 0 0 1.114-3.49 4.958 4.958 0 0 0-3.207 1.66 4.638 4.638 0 0 0-1.144 3.361 4.099 4.099 0 0 0 3.237-1.53ZM50.33 27.14h-4.733l-1.136 3.356h-2.005l4.483-12.418h2.083l4.483 12.418h-2.039l-1.135-3.356Zm-4.242-1.55h3.752l-1.85-5.446h-.052l-1.85 5.447Zm17.1.38c0 2.813-1.506 4.62-3.778 4.62a3.07 3.07 0 0 1-2.849-1.583h-.043v4.484H54.66V21.442h1.799v1.506h.034a3.212 3.212 0 0 1 2.883-1.6c2.297 0 3.812 1.816 3.812 4.622Zm-1.91 0c0-1.833-.947-3.038-2.393-3.038-1.42 0-2.375 1.23-2.375 3.038 0 1.824.955 3.046 2.375 3.046 1.446 0 2.393-1.197 2.393-3.046Zm11.875 0c0 2.813-1.506 4.62-3.778 4.62a3.069 3.069 0 0 1-2.849-1.583h-.043v4.484h-1.858V21.442h1.798v1.506h.035a3.212 3.212 0 0 1 2.882-1.6c2.298 0 3.813 1.816 3.813 4.622Zm-1.91 0c0-1.833-.947-3.038-2.393-3.038-1.42 0-2.375 1.23-2.375 3.038 0 1.824.955 3.046 2.375 3.046 1.446 0 2.393-1.197 2.393-3.046Zm8.496 1.066c.138 1.232 1.334 2.04 2.969 2.04 1.566 0 2.693-.808 2.693-1.919 0-.964-.68-1.54-2.29-1.936l-1.608-.388c-2.28-.55-3.34-1.617-3.34-3.348 0-2.142 1.868-3.614 4.52-3.614 2.623 0 4.422 1.472 4.483 3.614H85.29c-.113-1.239-1.137-1.987-2.634-1.987-1.497 0-2.522.757-2.522 1.858 0 .878.655 1.395 2.255 1.79l1.368.336c2.548.603 3.607 1.626 3.607 3.443 0 2.323-1.85 3.778-4.794 3.778-2.754 0-4.613-1.42-4.733-3.667h1.902ZM91.375 19.3v2.142h1.721v1.472h-1.721v4.991c0 .776.344 1.137 1.101 1.137.205-.004.409-.018.612-.043v1.463c-.34.064-.687.092-1.033.086-1.833 0-2.548-.689-2.548-2.444v-5.19h-1.316v-1.472h1.316V19.3h1.868Zm2.718 6.67c0-2.849 1.678-4.639 4.294-4.639 2.625 0 4.295 1.79 4.295 4.639 0 2.856-1.661 4.638-4.295 4.638-2.633 0-4.294-1.782-4.294-4.638Zm6.696 0c0-1.954-.896-3.108-2.402-3.108-1.505 0-2.4 1.162-2.4 3.108 0 1.962.895 3.106 2.4 3.106 1.506 0 2.402-1.144 2.402-3.106Zm3.425-4.528h1.773v1.541h.043a2.162 2.162 0 0 1 2.178-1.635 2.78 2.78 0 0 1 .636.07v1.737a2.594 2.594 0 0 0-.835-.112 1.872 1.872 0 0 0-1.936 2.083v5.37h-1.859v-9.053Zm13.199 6.395c-.25 1.643-1.851 2.771-3.899 2.771-2.634 0-4.268-1.764-4.268-4.595 0-2.84 1.643-4.682 4.19-4.682 2.505 0 4.08 1.72 4.08 4.466v.637h-6.394v.112a2.353 2.353 0 0 0 1.458 2.391c.31.127.643.186.977.173a2.05 2.05 0 0 0 2.091-1.273h1.765Zm-6.283-2.702h4.527a2.173 2.173 0 0 0-2.221-2.298 2.3 2.3 0 0 0-1.631.668 2.301 2.301 0 0 0-.675 1.63ZM45.855 8.73a2.64 2.64 0 0 1 2.807 2.966c0 1.906-1.03 3.002-2.807 3.002h-2.156V8.73h2.156Zm-1.229 5.124h1.125a1.876 1.876 0 0 0 1.968-2.146 1.882 1.882 0 0 0-1.968-2.134h-1.125v4.28Zm5.084-1.41a2.134 2.134 0 1 1 4.246 0 2.134 2.134 0 1 1-4.247 0Zm3.332 0c0-.976-.438-1.547-1.208-1.547-.772 0-1.207.571-1.207 1.547 0 .984.435 1.55 1.207 1.55.77 0 1.208-.57 1.208-1.55Zm6.56 2.254h-.922l-.93-3.317h-.071l-.927 3.317h-.913l-1.241-4.503h.901l.807 3.436h.066l.926-3.436h.852l.926 3.436h.07l.803-3.436h.889l-1.236 4.503Zm2.28-4.503h.855v.715h.067a1.348 1.348 0 0 1 1.344-.802 1.466 1.466 0 0 1 1.558 1.675v2.915h-.889v-2.692c0-.724-.314-1.084-.971-1.084a1.034 1.034 0 0 0-1.075 1.141v2.635h-.889v-4.503Zm5.24-1.758h.889v6.26h-.889v-6.26Zm2.124 4.007a2.134 2.134 0 1 1 4.248 0 2.134 2.134 0 1 1-4.248 0Zm3.333 0c0-.976-.438-1.546-1.208-1.546-.772 0-1.207.57-1.207 1.546 0 .984.435 1.55 1.207 1.55.77 0 1.208-.57 1.208-1.55Zm1.851.98c0-.81.603-1.277 1.674-1.344l1.22-.07v-.389c0-.476-.315-.744-.922-.744-.496 0-.84.182-.939.5h-.86c.091-.773.819-1.27 1.84-1.27 1.129 0 1.766.563 1.766 1.514v3.077h-.856v-.633h-.07a1.515 1.515 0 0 1-1.353.707 1.36 1.36 0 0 1-1.5-1.348Zm2.894-.384v-.377l-1.1.07c-.62.042-.901.253-.901.65 0 .405.351.64.835.64a1.064 1.064 0 0 0 1.166-.983Zm2.053-.596c0-1.423.731-2.324 1.869-2.324a1.485 1.485 0 0 1 1.38.79h.067V8.437h.889v6.26h-.852v-.71h-.07a1.563 1.563 0 0 1-1.414.785c-1.146 0-1.87-.901-1.87-2.328Zm.918 0c0 .955.45 1.53 1.203 1.53.749 0 1.212-.583 1.212-1.526 0-.938-.468-1.53-1.212-1.53-.748 0-1.203.58-1.203 1.526Zm6.963 0a2.133 2.133 0 1 1 4.248 0 2.134 2.134 0 1 1-4.248 0Zm3.333 0c0-.976-.438-1.547-1.208-1.547-.772 0-1.207.571-1.207 1.547 0 .984.435 1.55 1.207 1.55.77 0 1.208-.57 1.208-1.55Zm2.107-2.249h.855v.715h.067a1.348 1.348 0 0 1 1.343-.802 1.466 1.466 0 0 1 1.56 1.675v2.915h-.89v-2.692c0-.724-.314-1.084-.971-1.084a1.034 1.034 0 0 0-1.076 1.141v2.635h-.888v-4.503Zm8.846-1.121v1.141h.975v.749h-.975v2.315c0 .472.194.678.636.678.114 0 .227-.007.339-.02v.74a2.893 2.893 0 0 1-.483.046c-.989 0-1.382-.348-1.382-1.216v-2.543h-.715v-.749h.715V9.074h.89Zm2.189-.637h.881v2.482h.07a1.388 1.388 0 0 1 1.373-.807 1.484 1.484 0 0 1 1.551 1.678v2.908h-.89V12.01c0-.72-.335-1.084-.962-1.084a1.054 1.054 0 0 0-1.134 1.142v2.63h-.889V8.437Zm9.057 5.045a1.833 1.833 0 0 1-1.952 1.303 2.048 2.048 0 0 1-2.01-1.447 2.065 2.065 0 0 1-.07-.877 2.077 2.077 0 0 1 2.077-2.353c1.252 0 2.008.856 2.008 2.27v.31h-3.179v.05a1.19 1.19 0 0 0 1.199 1.29 1.082 1.082 0 0 0 1.071-.546h.856Zm-3.126-1.451h2.274a1.089 1.089 0 0 0-.666-1.084 1.09 1.09 0 0 0-.442-.083 1.153 1.153 0 0 0-1.166 1.167Z"/></g><defs><clipPath id="a"><path fill="#fff" d="M0 0h135v40H0z"/></clipPath></defs></svg>