<svg xmlns="http://www.w3.org/2000/svg" fill="none" viewBox="0 0 134 40"><path fill="#D61920" fill-rule="evenodd" d="m84.104 12.227-2.179-3.654-3.867 1.827-2.18-3.665-3.867 1.838-2.168-3.676-3.867 1.838-2.179-3.665-3.867 1.838-2.168-3.676-3.879 1.838-8.203 26.508 9.968 3.027a5.249 5.249 0 0 1 2.238-2.881 5.317 5.317 0 0 1 6.801 1.01 5.22 5.22 0 0 1 1.289 3.407v.108c.022.475-.033.951-.174 1.427l10.131 3.08 8.171-26.529Z" clip-rule="evenodd"/><path fill="#FEFEFE" fill-rule="evenodd" d="M54.232 27.395a1.07 1.07 0 0 1-.645-.366 1.055 1.055 0 0 1-.248-.694V13.362a1.065 1.065 0 0 1 .67-1.002c.133-.053.276-.08.419-.079h9.445a4.265 4.265 0 0 1 3 1.224 4.204 4.204 0 0 1 1.25 2.97v9.86a1.074 1.074 0 0 1-.398.833 1.092 1.092 0 0 1-.9.227 1.07 1.07 0 0 1-.637-.369 1.054 1.054 0 0 1-.245-.69v-9.85c0-.544-.218-1.067-.606-1.452a2.078 2.078 0 0 0-1.464-.602h-2.059v11.892a1.072 1.072 0 0 1-.327.779 1.08 1.08 0 0 1-.958.292 1.07 1.07 0 0 1-.645-.366 1.054 1.054 0 0 1-.248-.694V14.432h-4.119v11.892a1.074 1.074 0 0 1-.389.835 1.091 1.091 0 0 1-.896.236Zm15.71 5.654a1.07 1.07 0 0 1-.649-.37 1.055 1.055 0 0 1-.245-.7 1.093 1.093 0 0 1 1.079-1.081c.926 0 1.721-.584 1.982-1.46l1.123-3.708-3.672-12.184a1.073 1.073 0 0 1 .342-1.16c.111-.092.24-.16.377-.202.275-.076.568-.044.82.089.25.133.44.356.531.624l2.724 9.081 2.767-9.08c.13-.498.686-.833 1.253-.725l.076.01c.588.185.915.8.74 1.374l-3.78 12.497-1.198 4a4.324 4.324 0 0 1-1.525 2.162 4.27 4.27 0 0 1-2.55.843 1.054 1.054 0 0 1-.195-.01Z" clip-rule="evenodd"/><path fill="#333545" fill-rule="evenodd" d="M3.355 25.027h2.136c.569 0 1.115-.224 1.517-.624.403-.4.629-.94.629-1.506V16.66a2.115 2.115 0 0 0-.621-1.51 2.148 2.148 0 0 0-1.514-.631H3.355V25.027Zm-1.34 2.227a1.113 1.113 0 0 1-.668-.381 1.097 1.097 0 0 1-.258-.722V6.778a1.106 1.106 0 0 1 .327-.8 1.123 1.123 0 0 1 1.003-.324c.544.108.936.562.936 1.114v5.513h2.136a4.43 4.43 0 0 1 3.119 1.275 4.366 4.366 0 0 1 1.293 3.093v6.238a4.361 4.361 0 0 1-1.292 3.085 4.43 4.43 0 0 1-3.11 1.282H2.223c-.072.004-.145 0-.217-.01l.01.01ZM17.583 14.432a2.2 2.2 0 0 0-1.195.124 2.127 2.127 0 0 0-1.164 1.155c-.107.26-.16.538-.157.819v6.497a2.105 2.105 0 0 0 .625 1.51 2.138 2.138 0 0 0 1.521.62c.57 0 1.115-.225 1.518-.624.402-.4.628-.941.628-1.506v-6.486a2.14 2.14 0 0 0-1.776-2.109Zm-1.143 12.92a4.409 4.409 0 0 1-2.613-1.499 4.348 4.348 0 0 1-1.026-2.815V16.54a4.296 4.296 0 0 1 1.296-3.092 4.392 4.392 0 0 1 3.116-1.276c1.167 0 2.287.46 3.112 1.28a4.35 4.35 0 0 1 1.29 3.088v6.497c0 1.167-.458 2.27-1.297 3.103a4.382 4.382 0 0 1-3.105 1.275c-.26.001-.518-.02-.774-.065Zm12.855-12.909a2.2 2.2 0 0 0-1.195.124 2.125 2.125 0 0 0-1.164 1.155c-.107.26-.16.538-.158.819v6.497a2.107 2.107 0 0 0 .626 1.509 2.135 2.135 0 0 0 1.52.62 2.15 2.15 0 0 0 1.521-.62 2.116 2.116 0 0 0 .626-1.51v-6.496a2.138 2.138 0 0 0-1.776-2.098ZM28.15 27.351a4.408 4.408 0 0 1-2.606-1.5 4.347 4.347 0 0 1-1.022-2.813V16.54a4.35 4.35 0 0 1 .416-1.844 4.384 4.384 0 0 1 1.159-1.498 4.424 4.424 0 0 1 3.589-.961 4.409 4.409 0 0 1 2.616 1.49 4.348 4.348 0 0 1 1.034 2.813v6.497a4.307 4.307 0 0 1-1.308 3.103 4.381 4.381 0 0 1-3.105 1.275c-.261 0-.523-.021-.773-.065Zm9.01.044a1.113 1.113 0 0 1-.67-.382 1.098 1.098 0 0 1-.257-.721V6.778c0-.302.11-.594.327-.8a1.124 1.124 0 0 1 .992-.302c.544.086.948.551.948 1.102v11.546l5.207-5.794a1.164 1.164 0 0 1 1.582-.1 1.114 1.114 0 0 1 .38 1.066 1.11 1.11 0 0 1-.263.526l-3.932 4.356 4.063 7.384a1.074 1.074 0 0 1 .11.833 1.102 1.102 0 0 1-.556.67c-.231.131-.501.177-.763.13a1.128 1.128 0 0 1-.785-.54l-3.66-6.682-1.394 1.524v4.595c0 .298-.12.584-.332.795-.213.21-.5.33-.801.33-.077 0-.142 0-.218-.022h.021Zm49.906-.011a4.19 4.19 0 0 1-1.703-.692 4.154 4.154 0 0 1-1.238-1.351 1.139 1.139 0 0 1-.11-.865c.088-.281.273-.52.524-.67.232-.127.502-.169.762-.12.327.055.621.25.785.541.294.497.762.822 1.34.919a2.02 2.02 0 0 0 1.677-.476c.436-.4.654-.973.6-1.535a1.826 1.826 0 0 0-.817-1.449l-3.05-2.15a4.11 4.11 0 0 1-1.213-1.321 4.074 4.074 0 0 1-.53-1.707 3.97 3.97 0 0 1 .292-1.775 4 4 0 0 1 1.047-1.468 4.126 4.126 0 0 1 3.355-1.049c1.286.216 2.332.952 2.931 1.99a1.138 1.138 0 0 1-.414 1.535c-.23.131-.5.177-.762.13a1.127 1.127 0 0 1-.785-.541 1.81 1.81 0 0 0-1.285-.865 1.79 1.79 0 0 0-1.525.443 1.838 1.838 0 0 0-.578 1.449c.022.53.327 1.048.784 1.351l3.05 2.108c.519.36.947.832 1.253 1.381.306.55.481 1.16.513 1.787.05.623-.047 1.25-.283 1.83a4.022 4.022 0 0 1-1.079 1.51 4.258 4.258 0 0 1-3.464 1.081l-.088-.021h.011Zm8.748.032a1.135 1.135 0 0 1-.67-.382 1.12 1.12 0 0 1-.266-.72V6.8a1.108 1.108 0 0 1 .697-1.042 1.13 1.13 0 0 1 .436-.082l.217.01c.545.109.915.552.915 1.114v5.513h2.147a4.398 4.398 0 0 1 3.115 1.276 4.33 4.33 0 0 1 1.286 3.091v9.623a1.104 1.104 0 0 1-.399.857 1.126 1.126 0 0 1-.919.245 1.128 1.128 0 0 1-.937-1.113V16.67a2.105 2.105 0 0 0-.629-1.502 2.137 2.137 0 0 0-1.517-.617h-2.147v11.752a1.105 1.105 0 0 1-.402.862 1.124 1.124 0 0 1-.927.24v.011Zm15.558-12.962a2.155 2.155 0 0 0-1.755.462 2.098 2.098 0 0 0-.762 1.635v6.498a2.107 2.107 0 0 0 .621 1.505 2.145 2.145 0 0 0 1.514.624 2.145 2.145 0 0 0 1.985-1.31c.108-.26.163-.538.161-.82v-6.507c0-1.038-.74-1.925-1.775-2.098l.011.011Zm-1.155 12.887a4.399 4.399 0 0 1-2.605-1.495 4.334 4.334 0 0 1-1.023-2.808V16.54a4.353 4.353 0 0 1 1.571-3.35 4.423 4.423 0 0 1 3.593-.964 4.41 4.41 0 0 1 2.619 1.495 4.343 4.343 0 0 1 1.03 2.819v6.497a4.278 4.278 0 0 1-.339 1.677 4.322 4.322 0 0 1-.968 1.415 4.41 4.41 0 0 1-3.878 1.21ZM132.802 13.557a1.09 1.09 0 0 0 .028-.422 1.094 1.094 0 0 0-.137-.4 1.174 1.174 0 0 0-.741-.519 1.13 1.13 0 0 0-.813.156c-.24.153-.414.39-.484.666 0 .054-1.22 4.93-2.178 8.638l-.022.075-.022-.075-2.179-8.627a1.06 1.06 0 0 0-.871-.832 1.21 1.21 0 0 0-.196-.022c-.502 0-.937.346-1.079.843-.011.054-1.231 4.93-2.179 8.638l-.022.075-.021-.075c-.926-3.708-2.179-8.584-2.179-8.638a1.103 1.103 0 0 0-.883-.822 1.116 1.116 0 0 0-1.267.8c-.047.177-.05.363-.007.54l3.279 13.006a1.137 1.137 0 0 0 1.078.843c.534 0 .959-.346 1.068-.843l2.179-8.638.033-.075.021.075c.959 3.752 2.179 8.649 2.179 8.649.065.234.204.44.396.59.192.15.428.235.672.242a1.058 1.058 0 0 0 1.078-.843l3.269-13.005Z" clip-rule="evenodd"/></svg>