<svg xmlns="http://www.w3.org/2000/svg" fill="none" viewBox="0 0 32 32"><path fill="#D6B1FF" d="M6.667 1.333h-4a1.333 1.333 0 0 0-1.334 1.334v26.666a1.333 1.333 0 0 0 1.334 1.334h4V1.333Z"/><path fill="#8C30F5" d="M9.333 30.667h13.334V1.333H9.333v29.334ZM16 25.333a1.333 1.333 0 1 1 0-2.666 1.333 1.333 0 0 1 0 2.666Zm0-18.666a1.333 1.333 0 1 1 0 2.666 1.333 1.333 0 0 1 0-2.666Zm0 8a1.333 1.333 0 1 1 0 2.667 1.333 1.333 0 0 1 0-2.667Z"/><path fill="#2EC5CE" d="M29.333 1.333h-4v29.334h4a1.333 1.333 0 0 0 1.334-1.334V2.667a1.333 1.333 0 0 0-1.334-1.334Z"/></svg>