<svg xmlns="http://www.w3.org/2000/svg" fill="none" viewBox="0 0 32 32"><path fill="#8C30F5" d="M12 13.333H2.667A1.333 1.333 0 0 1 1.333 12V2.667a1.333 1.333 0 0 1 1.334-1.334H12a1.333 1.333 0 0 1 1.333 1.334V12A1.333 1.333 0 0 1 12 13.333ZM12 30.667H2.667a1.334 1.334 0 0 1-1.334-1.334V20a1.333 1.333 0 0 1 1.334-1.333H12A1.333 1.333 0 0 1 13.333 20v9.333A1.333 1.333 0 0 1 12 30.667Z"/><path fill="#2EC5CE" d="M17.333 2.667h13.334v2.666H17.333V2.667ZM30.667 20H17.333v2.667h13.334V20Z"/><path fill="#D6B1FF" d="M30.667 26.667H17.333v2.666h13.334v-2.666ZM30.667 9.333H17.333V12h13.334V9.333Z"/></svg>