<svg xmlns="http://www.w3.org/2000/svg" fill="none" viewBox="0 0 85 28"><g clip-path="url(#a)"><path fill="#EA4335" d="M36.246 14.36c0 3.886-3.085 6.75-6.871 6.75-3.786 0-6.871-2.864-6.871-6.75 0-3.915 3.085-6.751 6.871-6.751 3.786 0 6.871 2.836 6.871 6.75Zm-3.008 0c0-2.43-1.788-4.091-3.863-4.091s-3.863 1.661-3.863 4.09c0 2.404 1.788 4.09 3.863 4.09s3.863-1.689 3.863-4.09Z"/><path fill="#FBBC05" d="M51.07 14.36c0 3.886-3.085 6.75-6.871 6.75-3.787 0-6.872-2.864-6.872-6.75 0-3.912 3.085-6.751 6.872-6.751 3.786 0 6.87 2.836 6.87 6.75Zm-3.008 0c0-2.43-1.788-4.091-3.863-4.091-2.076 0-3.864 1.661-3.864 4.09 0 2.404 1.788 4.09 3.864 4.09 2.075 0 3.863-1.689 3.863-4.09Z"/><path fill="#4285F4" d="M65.276 8.016v12.12c0 4.985-2.984 7.02-6.51 7.02-3.32 0-5.318-2.187-6.072-3.977l2.619-1.074c.466 1.098 1.609 2.395 3.45 2.395 2.257 0 3.656-1.373 3.656-3.957v-.97h-.105c-.673.818-1.97 1.534-3.607 1.534-3.425 0-6.563-2.94-6.563-6.724 0-3.81 3.138-6.774 6.563-6.774 1.634 0 2.93.715 3.607 1.51h.105v-1.1h2.857v-.003Zm-2.644 6.367c0-2.376-1.609-4.114-3.656-4.114-2.076 0-3.814 1.738-3.814 4.114 0 2.353 1.738 4.067 3.814 4.067 2.047 0 3.656-1.714 3.656-4.067Z"/><path fill="#34A853" d="M69.985.913v19.783h-2.933V.913h2.933Z"/><path fill="#EA4335" d="m81.418 16.58 2.335 1.535c-.754 1.099-2.57 2.992-5.707 2.992-3.892 0-6.797-2.965-6.797-6.75 0-4.015 2.93-6.751 6.46-6.751 3.555 0 5.293 2.787 5.861 4.294l.312.767-9.156 3.737c.7 1.355 1.791 2.046 3.32 2.046 1.531 0 2.594-.743 3.372-1.87Zm-7.186-2.428 6.12-2.504c-.336-.844-1.349-1.431-2.541-1.431-1.529 0-3.657 1.33-3.58 3.935Z"/><path fill="#4285F4" d="M11.399 12.603V9.74h9.792c.096.5.145 1.09.145 1.729 0 2.149-.596 4.805-2.516 6.698-1.869 1.918-4.256 2.94-7.418 2.94-5.862 0-10.79-4.705-10.79-10.481C.611 4.848 5.54.143 11.401.143c3.242 0 5.552 1.254 7.288 2.888l-2.05 2.021c-1.245-1.15-2.931-2.045-5.242-2.045-4.28 0-7.627 3.4-7.627 7.618a7.573 7.573 0 0 0 7.628 7.618c2.776 0 4.357-1.1 5.37-2.097.821-.81 1.362-1.966 1.575-3.546l-6.946.003Z"/></g><defs><clipPath id="a"><path fill="#fff" d="M.5 0h84v28H.5z"/></clipPath></defs></svg>