<svg xmlns="http://www.w3.org/2000/svg" width="135" height="40" fill="none"><g clip-path="url(#a)"><path fill="#000" d="M130 0H5a5 5 0 0 0-5 5v30a5 5 0 0 0 5 5h125a5 5 0 0 0 5-5V5a5 5 0 0 0-5-5Z"/><path fill="#A6A6A6" d="M130 .8a4.202 4.202 0 0 1 4.2 4.2v30a4.202 4.202 0 0 1-4.2 4.2H5A4.205 4.205 0 0 1 .8 35V5A4.205 4.205 0 0 1 5 .8h125Zm0-.8H5a5.015 5.015 0 0 0-5 5v30a5.015 5.015 0 0 0 5 5h125a5.014 5.014 0 0 0 5-5V5a5.015 5.015 0 0 0-5-5Z"/><path fill="#fff" stroke="#fff" stroke-miterlimit="10" stroke-width=".2" d="M47.418 10.243a2.707 2.707 0 0 1-.745 2.003 2.909 2.909 0 0 1-2.204.888A3.09 3.09 0 0 1 41.352 10a3.092 3.092 0 0 1 3.117-3.134c.423-.001.843.084 1.232.251.36.147.682.376.938.67l-.527.529a2.026 2.026 0 0 0-1.643-.712A2.32 2.32 0 0 0 42.14 10a2.36 2.36 0 0 0 4.006 1.727 1.89 1.89 0 0 0 .503-1.216H44.47v-.72h2.907c.028.149.042.3.042.452Zm4.61-2.506h-2.733V9.64h2.464v.72h-2.464v1.903h2.733V13h-3.503V7h3.503v.737ZM55.279 13h-.772V7.737h-1.676V7h4.123v.737H55.28V13Zm4.659 0V7h.77v6h-.77Zm4.19 0h-.771V7.737H61.68V7h4.123v.737h-1.676V13Zm9.482-.775a3.115 3.115 0 0 1-4.4 0A3.068 3.068 0 0 1 68.326 10a3.068 3.068 0 0 1 .884-2.225 3.105 3.105 0 0 1 4.395.004A3.068 3.068 0 0 1 74.493 10a3.072 3.072 0 0 1-.884 2.225Zm-3.83-.503a2.307 2.307 0 0 0 3.259 0A2.347 2.347 0 0 0 73.706 10a2.349 2.349 0 0 0-.667-1.722 2.307 2.307 0 0 0-3.26 0A2.35 2.35 0 0 0 69.113 10a2.35 2.35 0 0 0 .666 1.722ZM75.575 13V7h.939l2.916 4.668h.033l-.033-1.157V7h.771v6h-.805l-3.05-4.894h-.034l.034 1.157V13h-.77Z"/><path fill="#fff" d="M68.136 21.752a4.253 4.253 0 1 0 4.27 4.253 4.19 4.19 0 0 0-4.27-4.253Zm0 6.83a2.584 2.584 0 1 1 2.4-2.577 2.46 2.46 0 0 1-2.4 2.578Zm-9.314-6.83a4.254 4.254 0 1 0 4.27 4.253 4.19 4.19 0 0 0-4.27-4.253Zm0 6.83a2.584 2.584 0 1 1 2.4-2.577 2.461 2.461 0 0 1-2.4 2.578Zm-11.078-5.525v1.804h4.317a3.766 3.766 0 0 1-.983 2.272 4.42 4.42 0 0 1-3.334 1.32 4.801 4.801 0 0 1 0-9.601 4.602 4.602 0 0 1 3.254 1.289l1.273-1.273a6.294 6.294 0 0 0-4.527-1.82 6.608 6.608 0 0 0-6.19 9.155 6.608 6.608 0 0 0 6.19 4.055 6.039 6.039 0 0 0 4.607-1.853 5.962 5.962 0 0 0 1.563-4.22 5.874 5.874 0 0 0-.097-1.128h-6.073Zm45.308 1.401a3.953 3.953 0 0 0-3.641-2.706 4.043 4.043 0 0 0-4.011 4.253 4.162 4.162 0 0 0 4.22 4.253 4.23 4.23 0 0 0 3.545-1.885l-1.45-.966a2.43 2.43 0 0 1-2.095 1.175 2.163 2.163 0 0 1-2.062-1.288l5.687-2.352-.193-.484Zm-5.8 1.418a2.333 2.333 0 0 1 2.223-2.481 1.648 1.648 0 0 1 1.58.902l-3.803 1.579ZM82.628 30h1.87V17.5h-1.87V30Zm-3.06-7.298h-.065a2.947 2.947 0 0 0-2.24-.95 4.257 4.257 0 0 0 0 8.506 2.9 2.9 0 0 0 2.24-.967h.064v.613c0 1.627-.87 2.497-2.271 2.497a2.353 2.353 0 0 1-2.143-1.515l-1.627.677a4.052 4.052 0 0 0 3.77 2.513c2.19 0 4.044-1.289 4.044-4.43v-7.637h-1.773v.693Zm-2.143 5.88a2.587 2.587 0 0 1 0-5.155 2.397 2.397 0 0 1 2.271 2.594 2.378 2.378 0 0 1-2.271 2.561ZM101.806 17.5h-4.471V30H99.2v-4.736h2.606a3.886 3.886 0 0 0 3.784-5.42 3.886 3.886 0 0 0-3.784-2.345Zm.048 6.025H99.2V19.24h2.654a2.145 2.145 0 0 1 2.188 2.142 2.134 2.134 0 0 1-.644 1.531 2.146 2.146 0 0 1-1.544.612Zm11.532-1.795a3.507 3.507 0 0 0-3.33 1.914l1.657.691a1.766 1.766 0 0 1 1.705-.917 1.796 1.796 0 0 1 1.962 1.609v.128a4.13 4.13 0 0 0-1.946-.482c-1.785 0-3.603.981-3.603 2.814a2.893 2.893 0 0 0 1.964 2.608 2.89 2.89 0 0 0 1.14.143 2.63 2.63 0 0 0 2.381-1.223h.064v.965h1.801v-4.792c0-2.22-1.656-3.458-3.795-3.458Zm-.225 6.851c-.612 0-1.464-.305-1.464-1.061 0-.965 1.061-1.335 1.978-1.335a3.325 3.325 0 0 1 1.705.418 2.264 2.264 0 0 1-2.219 1.978Zm10.582-6.578-2.139 5.42h-.064l-2.22-5.42h-2.01l3.329 7.575-1.898 4.214h1.946l5.131-11.789h-2.075ZM106.936 30h1.866V17.5h-1.866V30Z"/><path fill="url(#b)" d="M10.435 7.538a2.002 2.002 0 0 0-.462 1.405V31.06a2 2 0 0 0 .462 1.405l.074.072L22.9 20.147v-.292L10.51 7.465l-.074.073Z"/><path fill="url(#c)" d="m27.028 24.279-4.13-4.132v-.292l4.13-4.13.094.053 4.893 2.78c1.397.794 1.397 2.093 0 2.887l-4.893 2.78-.094.054Z"/><path fill="url(#d)" d="m27.122 24.225-4.224-4.224-12.463 12.463a1.626 1.626 0 0 0 2.078.062l14.609-8.3Z"/><path fill="url(#e)" d="m27.122 15.777-14.609-8.3a1.627 1.627 0 0 0-2.078.061l12.463 12.463 4.224-4.224Z"/><path fill="#000" d="M27.029 24.132 12.513 32.38a1.666 1.666 0 0 1-2.003.011l-.075.075.074.072a1.666 1.666 0 0 0 2.004-.011l14.609-8.3-.093-.094Z" opacity=".2"/><path fill="#000" d="M10.435 32.319a2.003 2.003 0 0 1-.462-1.405v.146c-.031.51.134 1.012.462 1.405l.075-.075-.075-.072Zm21.58-11.02-4.986 2.833.093.093 4.893-2.78A1.754 1.754 0 0 0 33.063 20a1.862 1.862 0 0 1-1.048 1.298Z" opacity=".12"/><path fill="#fff" d="m12.513 7.623 19.502 11.08a1.862 1.862 0 0 1 1.048 1.298 1.753 1.753 0 0 0-1.048-1.444L12.513 7.477c-1.397-.794-2.54-.134-2.54 1.467v.146c0-1.601 1.143-2.26 2.54-1.467Z" opacity=".25"/></g><defs><linearGradient id="b" x1="21.8" x2="5.017" y1="8.71" y2="25.492" gradientUnits="userSpaceOnUse"><stop stop-color="#00A0FF"/><stop offset=".007" stop-color="#00A1FF"/><stop offset=".26" stop-color="#00BEFF"/><stop offset=".512" stop-color="#00D2FF"/><stop offset=".76" stop-color="#00DFFF"/><stop offset="1" stop-color="#00E3FF"/></linearGradient><linearGradient id="c" x1="33.834" x2="9.637" y1="20.002" y2="20.002" gradientUnits="userSpaceOnUse"><stop stop-color="#FFE000"/><stop offset=".409" stop-color="#FFBD00"/><stop offset=".775" stop-color="orange"/><stop offset="1" stop-color="#FF9C00"/></linearGradient><linearGradient id="d" x1="24.827" x2="2.069" y1="22.296" y2="45.055" gradientUnits="userSpaceOnUse"><stop stop-color="#FF3A44"/><stop offset="1" stop-color="#C31162"/></linearGradient><linearGradient id="e" x1="7.297" x2="17.46" y1=".176" y2="10.339" gradientUnits="userSpaceOnUse"><stop stop-color="#32A071"/><stop offset=".069" stop-color="#2DA771"/><stop offset=".476" stop-color="#15CF74"/><stop offset=".801" stop-color="#06E775"/><stop offset="1" stop-color="#00F076"/></linearGradient><clipPath id="a"><path fill="#fff" d="M0 0h135v40H0z"/></clipPath></defs></svg>