<svg xmlns="http://www.w3.org/2000/svg" fill="none" viewBox="0 0 85 24"><g clip-path="url(#a)"><path fill="#33475B" d="M9.597 3.973v6.77H3.428v-6.77H.5v16.16h2.928v-6.55h6.169v6.55h2.928V3.973H9.597ZM21.897 14.909c0 .648-.255 1.269-.71 1.727a2.413 2.413 0 0 1-3.425 0 2.452 2.452 0 0 1-.71-1.727V7.987h-2.778v6.922c0 1.389.548 2.72 1.522 3.703a5.175 5.175 0 0 0 3.674 1.534c1.378 0 2.7-.552 3.674-1.534a5.258 5.258 0 0 0 1.521-3.703V7.987h-2.768v6.922ZM42.479 8.7c0-1.418.93-1.868 1.951-1.868.822 0 1.908.63 2.618 1.396l1.82-2.161c-.908-1.238-2.75-2.094-4.259-2.094-3.013 0-5.192 1.779-5.192 4.727 0 5.472 6.634 3.736 6.634 6.798 0 .944-.91 1.778-1.951 1.778-1.643 0-2.175-.81-2.93-1.665l-2.019 2.115c1.292 1.598 2.884 2.41 4.793 2.41 2.862 0 5.165-1.8 5.165-4.615 0-6.074-6.635-4.187-6.635-6.82M83.523 17.551c-1.642 0-2.108-.716-2.108-1.812v-4.852h2.551V8.43h-2.55V5.185l-2.817 1.274v9.883c0 2.528 1.73 3.802 4.103 3.802.372.007.744-.023 1.11-.09l.688-2.549c-.31.022-.666.043-.977.043M32.47 8.069c-1.375 0-2.335.402-3.264 1.32v-5.32h-2.782v9.86c0 3.69 2.648 6.218 5.622 6.218 3.3 0 6.203-2.572 6.203-6.038 0-3.421-2.672-6.04-5.778-6.04Zm-.017 9.257a3.139 3.139 0 0 1-1.753-.537 3.176 3.176 0 0 1-1.163-1.427 3.205 3.205 0 0 1 .684-3.468 3.133 3.133 0 0 1 3.44-.69c.577.241 1.07.65 1.417 1.172a3.2 3.2 0 0 1-.393 4.018 3.144 3.144 0 0 1-2.232.932ZM62.68 13.962c0-3.471-2.898-6.038-6.203-6.038-2.975 0-5.622 2.528-5.622 6.219v9.864h2.782v-5.326c.927.917 1.888 1.32 3.263 1.32 3.106 0 5.778-2.616 5.778-6.04h.001Zm-2.635-.035a3.2 3.2 0 0 1-.532 1.768c-.347.523-.84.93-1.417 1.172a3.133 3.133 0 0 1-3.44-.69 3.205 3.205 0 0 1-.684-3.467 3.177 3.177 0 0 1 1.163-1.428 3.139 3.139 0 0 1 3.985.395c.592.597.925 1.406.925 2.25Z"/><path fill="#FF7A59" d="M71.667 7.788V4.97c.37-.174.682-.45.902-.797.22-.346.337-.748.34-1.159V2.95c0-.575-.228-1.127-.631-1.534a2.144 2.144 0 0 0-1.522-.635h-.065c-.57 0-1.118.228-1.522.635-.403.407-.63.959-.63 1.534v.065c.002.411.12.813.34 1.16.22.346.532.622.901.796v2.817a6.072 6.072 0 0 0-2.898 1.286l-7.665-6.018c.054-.199.083-.403.086-.609.001-.483-.14-.956-.406-1.359A2.43 2.43 0 0 0 57.81.186a2.407 2.407 0 0 0-2.644.526 2.462 2.462 0 0 0-.53 2.663c.184.447.494.829.893 1.098.398.27.867.413 1.346.414.42-.002.831-.115 1.194-.327l7.549 5.92a6.198 6.198 0 0 0 .093 6.941l-2.296 2.314a1.953 1.953 0 0 0-.573-.094 1.98 1.98 0 0 0-1.106.339c-.328.22-.583.534-.733.9a2.023 2.023 0 0 0 .432 2.188 1.986 1.986 0 0 0 2.17.435c.363-.151.674-.409.893-.738.22-.33.336-.718.336-1.115a1.995 1.995 0 0 0-.093-.579l2.272-2.289a6.077 6.077 0 0 0 5.284 1.08 6.106 6.106 0 0 0 2.45-1.297 6.17 6.17 0 0 0 1.633-2.252 6.215 6.215 0 0 0-.283-5.427 6.154 6.154 0 0 0-1.859-2.067 6.096 6.096 0 0 0-2.571-1.031Zm-.941 9.264a3.124 3.124 0 0 1-1.745-.535 3.163 3.163 0 0 1-1.156-1.421 3.191 3.191 0 0 1 .682-3.45 3.12 3.12 0 0 1 3.424-.686c.574.238 1.065.644 1.41 1.165a3.185 3.185 0 0 1-.39 3.998 3.13 3.13 0 0 1-2.222.928"/></g><defs><clipPath id="a"><path fill="#fff" d="M.5 0h84v24H.5z"/></clipPath></defs></svg>