<svg xmlns="http://www.w3.org/2000/svg" fill="none" viewBox="0 0 32 32"><g clip-path="url(#a)"><path fill="#F22BB2" d="M.658 32h10.849a9.315 9.315 0 0 0 9.315-9.315H9.972A9.315 9.315 0 0 0 .659 32Z"/><path fill="#8C30F5" d="M1.143 9.315v13.699a9.315 9.315 0 0 0 9.315-9.315V0a9.315 9.315 0 0 0-9.315 9.315Z"/><path fill="#FE9A22" d="M31.343 0h-10.85a9.315 9.315 0 0 0-9.315 9.315h10.85A9.315 9.315 0 0 0 31.342 0Z"/><path fill="#2EC5CE" d="M31.343 22.137V8.438a9.315 9.315 0 0 0-9.316 9.315v13.7a9.315 9.315 0 0 0 9.316-9.316Z"/></g><defs><clipPath id="a"><path fill="#fff" d="M0 0h32v32H0z"/></clipPath></defs></svg>